<svg xmlns="http://www.w3.org/2000/svg" viewBox="0 0 64 64" fill="none">
  <defs>
    <linearGradient id="rim" x1="8" y1="4" x2="56" y2="60" gradientUnits="userSpaceOnUse">
      <stop stop-color="#fff6d0"/>
      <stop offset=".45" stop-color="#e8c76a"/>
      <stop offset="1" stop-color="#8a6418"/>
    </linearGradient>
    <linearGradient id="body" x1="18" y1="10" x2="50" y2="54" gradientUnits="userSpaceOnUse">
      <stop stop-color="#ff6b8a"/>
      <stop offset=".4" stop-color="#c41e3a"/>
      <stop offset="1" stop-color="#5a0c14"/>
    </linearGradient>
    <linearGradient id="core" x1="24" y1="20" x2="42" y2="44" gradientUnits="userSpaceOnUse">
      <stop stop-color="#fff8e8"/>
      <stop offset=".55" stop-color="#f0d060"/>
      <stop offset="1" stop-color="#c9a227"/>
    </linearGradient>
    <filter id="glow" x="-40%" y="-40%" width="180%" height="180%">
      <feGaussianBlur stdDeviation="2.2" result="b"/>
      <feMerge>
        <feMergeNode in="b"/>
        <feMergeNode in="SourceGraphic"/>
      </feMerge>
    </filter>
  </defs>
  <polygon points="32,4 58,32 32,60 6,32" fill="url(#rim)" filter="url(#glow)"/>
  <polygon points="32,10 52,32 32,54 12,32" fill="url(#body)"/>
  <polygon points="32,10 52,32 32,34" fill="#ffb0c0" opacity=".35"/>
  <polygon points="32,10 32,34 12,32" fill="#4a0810" opacity=".35"/>
  <polygon points="32,18 46,32 32,46 18,32" fill="url(#core)"/>
  <polygon points="32,18 46,32 32,30" fill="#fff" opacity=".55"/>
  <circle cx="32" cy="22" r="2.2" fill="#fff" opacity=".9"/>
  <path d="M32 8 L34.2 14.5 L41 14.8 L35.6 19.1 L37.2 25.8 L32 22.4 L26.8 25.8 L28.4 19.1 L23 14.8 L29.8 14.5 Z"
        fill="#ffe9a0" opacity=".85"/>
</svg>
