<svg xmlns="http://www.w3.org/2000/svg" viewBox="0 0 64 64" fill="none">
  <defs>
    <linearGradient id="mt-rim" x1="8" y1="6" x2="56" y2="58" gradientUnits="userSpaceOnUse">
      <stop stop-color="#ffd0d6"/>
      <stop offset=".4" stop-color="#e84a5f"/>
      <stop offset="1" stop-color="#6a0d18"/>
    </linearGradient>
    <linearGradient id="mt-body" x1="14" y1="12" x2="50" y2="52" gradientUnits="userSpaceOnUse">
      <stop stop-color="#ff5a6e"/>
      <stop offset=".45" stop-color="#c41e3a"/>
      <stop offset="1" stop-color="#4a0810"/>
    </linearGradient>
    <filter id="mt-glow" x="-40%" y="-40%" width="180%" height="180%">
      <feGaussianBlur stdDeviation="1.8" result="b"/>
      <feMerge>
        <feMergeNode in="b"/>
        <feMergeNode in="SourceGraphic"/>
      </feMerge>
    </filter>
  </defs>
  <!-- Ticket body -->
  <path d="M10 18h44a4 4 0 0 1 4 4v20a4 4 0 0 1-4 4H10a4 4 0 0 1-4-4V22a4 4 0 0 1 4-4z"
        fill="url(#mt-rim)" filter="url(#mt-glow)"/>
  <path d="M12 20h40a3 3 0 0 1 3 3v18a3 3 0 0 1-3 3H12a3 3 0 0 1-3-3V23a3 3 0 0 1 3-3z"
        fill="url(#mt-body)"/>
  <!-- Notch perforations -->
  <circle cx="32" cy="20" r="3.2" fill="#1a0608"/>
  <circle cx="32" cy="44" r="3.2" fill="#1a0608"/>
  <path d="M32 23.5v17" stroke="#ffb0bc" stroke-width="1.4" stroke-dasharray="2.2 2.4" opacity=".7"/>
  <!-- Seal -->
  <circle cx="22" cy="32" r="7" fill="#6a0d18" stroke="#ffd0d6" stroke-width="1.2"/>
  <text x="22" y="35.5" text-anchor="middle" font-size="9" font-family="Georgia, serif" fill="#ffe8ec" font-weight="700">M</text>
  <path d="M38 26h12M38 32h12M38 38h8" stroke="#ffc0c8" stroke-width="1.5" stroke-linecap="round" opacity=".85"/>
</svg>
